<svg width="33" height="31" viewBox="0 0 33 31" fill="none" xmlns="http://www.w3.org/2000/svg">
<g clip-path="url(#clip0_86_412)">
<path d="M13.4396 15.0777C13.7455 14.9474 13.8871 14.5955 13.756 14.2914C13.747 14.272 12.9001 12.2802 12.9001 9.88556C12.9001 7.70957 14.6029 3.83082 16.5166 1.51106C18.4303 3.83082 20.133 7.70957 20.133 9.88556C20.133 12.2592 19.2937 14.2555 19.2771 14.2929C19.146 14.597 19.2877 14.9489 19.5936 15.0792C19.6704 15.1121 19.7518 15.1271 19.8301 15.1271C20.0637 15.1271 20.2867 14.9908 20.3847 14.7632C20.4238 14.6733 21.337 12.5228 21.337 9.88406C21.337 7.24531 19.2515 2.63126 16.9581 0.190193C16.8436 0.0688889 16.6838 0 16.5181 0C16.3523 0 16.1911 0.0688889 16.0781 0.190193C13.7847 2.63126 11.6962 7.2528 11.6962 9.88406C11.6962 12.5153 12.6108 14.6718 12.6485 14.7632C12.7796 15.0672 13.1337 15.208 13.4396 15.0777Z" fill="#15803D"/>
<path d="M8.64328 20.2369C8.7593 20.3477 8.90999 20.4016 9.05917 20.4016C9.21889 20.4016 9.37711 20.3387 9.49615 20.2159C9.72519 19.9763 9.71615 19.5974 9.47656 19.3683C5.6778 15.7696 0.661496 17.035 0.44903 17.0919C0.128071 17.1758 -0.0632989 17.5038 0.0210846 17.8227C0.105468 18.1417 0.435468 18.3334 0.756427 18.2496C0.801633 18.2376 5.34328 17.1069 8.64478 20.2354L8.64328 20.2369Z" fill="#15803D"/>
<path d="M32.551 17.092C32.3385 17.0365 27.3222 15.7696 23.5234 19.3683C23.2823 19.5959 23.2733 19.9763 23.5038 20.2159C23.6229 20.3387 23.7811 20.4016 23.9408 20.4016C24.09 20.4016 24.2407 20.3462 24.3567 20.2369C27.6582 17.1084 32.1984 18.2391 32.2451 18.2511C32.5675 18.335 32.896 18.1448 32.9804 17.8243C33.0663 17.5038 32.8734 17.1758 32.5525 17.092H32.551Z" fill="#15803D"/>
<path d="M31.3681 21.5922C31.1993 21.5413 27.161 20.3582 21.1441 23.1182C19.2651 23.9793 17.7341 24.9872 16.5121 25.9681C17.7643 23.1197 20.0577 18.6374 22.8047 16.6591C27.0133 13.631 31.8699 12.5767 31.9196 12.5662C32.2451 12.4973 32.453 12.1799 32.3837 11.8564C32.3144 11.5329 31.9949 11.3262 31.6695 11.3951C31.4615 11.4385 26.5206 12.5063 22.0979 15.6887C20.4178 16.8972 18.7467 19.0148 17.1193 21.9875V8.72043C17.1193 8.38947 16.8496 8.1214 16.5166 8.1214C16.1836 8.1214 15.9138 8.38947 15.9138 8.72043V21.4229C15.2614 20.2968 14.2623 18.8905 12.7359 17.2866C8.83466 13.1862 1.94234 11.47 1.65001 11.3996C1.32603 11.3202 1.00055 11.5179 0.920691 11.8384C0.840828 12.1604 1.03973 12.4839 1.3622 12.5632C1.43001 12.5797 8.19877 14.2645 11.8604 18.1103C15.0745 21.4858 15.7797 23.8925 15.8988 24.3986C15.7797 24.6517 15.6682 24.8973 15.5612 25.1325C14.8711 24.5814 13.6099 23.849 11.4053 22.8217C6.44028 20.5094 2.42151 21.5428 2.25275 21.5877C1.93179 21.673 1.74192 22.001 1.82781 22.32C1.9137 22.639 2.24371 22.8292 2.56466 22.7438C2.60234 22.7348 6.34836 21.7884 10.893 23.9059C13.9489 25.3286 14.8259 26.046 15.061 26.2856C14.7732 26.9745 14.5667 27.5121 14.4522 27.8206C10.6459 24.1096 4.47083 24.2534 4.1996 24.2624C3.86658 24.2728 3.6059 24.5484 3.61644 24.8794C3.62699 25.2103 3.90576 25.4709 4.23727 25.4604C4.29905 25.4589 10.2436 25.3271 13.6777 28.7446C13.3688 29.1175 13.1292 29.441 12.9529 29.6911C9.75083 27.4178 6.84412 26.9835 6.71453 26.964C6.38603 26.9176 6.08014 27.1452 6.03343 27.4717C6.0274 27.5136 6.0259 27.5541 6.02891 27.5945C6.04549 27.8715 6.25644 28.1082 6.54425 28.1501C6.55028 28.1501 6.70097 28.1741 6.96617 28.234C7.79192 28.4242 9.72823 28.9813 11.8438 30.3845C12.4436 30.5462 13.0553 30.678 13.6777 30.7769C13.8208 30.5492 14.3181 29.7974 15.2207 28.821C15.3201 28.7641 15.403 28.6787 15.4573 28.5694C16.7547 27.2201 18.7784 25.5233 21.6504 24.2055C27.2167 21.6521 30.9793 22.7258 31.0155 22.7363C31.2234 22.8007 31.4374 22.7453 31.5896 22.612C31.671 22.5416 31.7343 22.4503 31.7689 22.341C31.7719 22.329 31.7734 22.317 31.7764 22.305C31.8503 21.9995 31.677 21.6865 31.3696 21.5922H31.3681Z" fill="#15803D"/>
<path d="M29.031 24.5679C28.9134 24.5484 26.1077 24.1096 22.1417 25.6671C18.1485 27.2351 15.9485 30.6436 15.8566 30.7873C15.8174 30.8487 15.7933 30.9161 15.7782 30.9835C16.0178 30.9925 16.2574 30.9985 16.4985 30.9985C16.7396 30.9985 16.9626 30.9925 17.1932 30.9835C17.9029 30.052 19.7774 27.882 22.5847 26.7798C26.2162 25.3526 28.808 25.745 28.8321 25.748C28.9421 25.7659 29.0491 25.751 29.147 25.7135C29.3127 25.6506 29.4438 25.5173 29.5011 25.3436C29.5101 25.3152 29.5207 25.2867 29.5252 25.2553C29.5795 24.9288 29.358 24.6203 29.0295 24.5664L29.031 24.5679Z" fill="#15803D"/>
<path d="M26.1333 26.9625C26.0414 26.976 23.8534 27.301 21.6489 28.8659C20.8804 29.4111 20.2536 30.07 19.7623 30.702C20.5082 30.5642 21.239 30.3785 21.9488 30.1509C22.0769 30.0445 22.211 29.9397 22.3496 29.8409C23.9453 28.7087 25.5577 28.2999 26.1077 28.186C26.2282 28.1606 26.2975 28.1501 26.3051 28.1486C26.5477 28.1142 26.736 27.9389 26.7978 27.7188C26.8204 27.6409 26.8279 27.5571 26.8144 27.4717C26.7677 27.1437 26.4633 26.9161 26.1318 26.964L26.1333 26.9625Z" fill="#15803D"/>
</g>
<defs>
<clipPath id="clip0_86_412">
<rect width="33" height="31" fill="white"/>
</clipPath>
</defs>
</svg>
