<svg width="90" height="66" viewBox="0 0 90 66" fill="none" xmlns="http://www.w3.org/2000/svg">
<g clip-path="url(#clip0_114_3757)">
<path d="M39.3783 23.5589C39.8613 23.3553 40.0849 22.8054 39.8779 22.3304C39.8637 22.3 38.5265 19.1878 38.5265 15.4462C38.5265 12.0462 41.2151 5.98566 44.2367 2.36104C47.2583 5.98566 49.9469 12.0462 49.9469 15.4462C49.9469 19.155 48.6216 22.2742 48.5955 22.3327C48.3885 22.8077 48.6121 23.3576 49.0951 23.5612C49.2164 23.6127 49.3449 23.6361 49.4686 23.6361C49.8374 23.6361 50.1895 23.4232 50.3442 23.0675C50.4061 22.9271 51.8479 19.5669 51.8479 15.4438C51.8479 11.3208 48.555 4.11134 44.9338 0.297177C44.753 0.107639 44.5008 0 44.2391 0C43.9774 0 43.7228 0.107639 43.5443 0.297177C39.9231 4.11134 36.6255 11.3325 36.6255 15.4438C36.6255 19.5552 38.0697 22.9247 38.1292 23.0675C38.3362 23.5425 38.8953 23.7625 39.3783 23.5589Z" fill="#15803D"/>
<path d="M31.8052 31.6201C31.9884 31.7933 32.2263 31.8775 32.4619 31.8775C32.7141 31.8775 32.9639 31.7792 33.1519 31.5873C33.5135 31.213 33.4992 30.6209 33.1209 30.2629C27.1229 24.64 19.2024 26.6172 18.8669 26.7062C18.3601 26.8372 18.058 27.3497 18.1912 27.8481C18.3245 28.3465 18.8455 28.646 19.3523 28.515C19.4237 28.4962 26.5947 26.7296 31.8076 31.6178L31.8052 31.6201Z" fill="#15803D"/>
<path d="M69.5541 26.7061C69.2187 26.6196 61.2982 24.6399 55.3001 30.2629C54.9195 30.6186 54.9052 31.2129 55.2692 31.5873C55.4572 31.7792 55.707 31.8775 55.9592 31.8775C56.1947 31.8775 56.4327 31.7909 56.6159 31.6201C61.8288 26.7319 68.9974 28.4986 69.0712 28.5173C69.5803 28.6483 70.099 28.3511 70.2322 27.8504C70.3678 27.3496 70.0633 26.8372 69.5565 26.7061H69.5541Z" fill="#15803D"/>
<path d="M67.6864 33.7378C67.42 33.6582 61.0436 31.8096 51.5433 36.1222C48.5764 37.4677 46.1591 39.0425 44.2296 40.5752C46.2067 36.1246 49.8279 29.121 54.1652 26.0299C60.8104 21.2985 68.4787 19.6511 68.5572 19.6347C69.0712 19.5271 69.3995 19.031 69.29 18.5256C69.1806 18.0202 68.6762 17.6972 68.1623 17.8049C67.834 17.8727 60.0324 19.5411 53.0494 24.5136C50.3965 26.402 47.758 29.7107 45.1884 34.3555V13.6257C45.1884 13.1086 44.7625 12.6897 44.2367 12.6897C43.7109 12.6897 43.285 13.1086 43.285 13.6257V33.4734C42.2548 31.7137 40.6774 29.5165 38.2672 27.0103C32.1073 20.6035 21.2247 17.9219 20.7632 17.8119C20.2516 17.6879 19.7377 17.9968 19.6116 18.4975C19.4855 19.0006 19.7996 19.506 20.3087 19.6301C20.4158 19.6558 31.1033 22.2883 36.8849 28.2973C41.9598 33.5716 43.0732 37.332 43.2612 38.1229C43.0732 38.5184 42.8972 38.9021 42.7283 39.2695C41.6386 38.4084 39.6471 37.2641 36.1663 35.6589C28.3267 32.046 21.9813 33.6606 21.7148 33.7308C21.2081 33.8641 20.9083 34.3766 21.0439 34.875C21.1795 35.3734 21.7006 35.6706 22.2073 35.5372C22.2668 35.5232 28.1816 34.0443 35.3574 37.353C40.1825 39.576 41.5672 40.6969 41.9384 41.0713C41.4839 42.1477 41.158 42.9877 40.9771 43.4697C34.9672 37.6713 25.2171 37.8959 24.7888 37.91C24.263 37.9263 23.8514 38.3569 23.8681 38.874C23.8847 39.3912 24.3249 39.7983 24.8483 39.7819C24.9458 39.7796 34.3319 39.5737 39.7542 44.9135C39.2665 45.4962 38.8882 46.0016 38.6098 46.3924C33.5539 42.8403 28.9644 42.1617 28.7598 42.1313C28.2411 42.0587 27.7581 42.4144 27.6843 42.9245C27.6748 42.99 27.6725 43.0532 27.6772 43.1164C27.7034 43.5493 28.0365 43.919 28.4909 43.9845C28.5004 43.9845 28.7384 44.022 29.1571 44.1156C30.4609 44.4128 33.5182 45.2832 36.8587 47.4758C37.8056 47.7285 38.7716 47.9344 39.7542 48.0889C39.9802 47.7332 40.7654 46.5585 42.1906 45.0328C42.3476 44.9439 42.4784 44.8105 42.5641 44.6397C44.6126 42.5314 47.8079 39.8802 52.3427 37.821C61.1316 33.8314 67.0726 35.5091 67.1297 35.5255C67.458 35.6261 67.7959 35.5396 68.0362 35.3313C68.1647 35.2213 68.2646 35.0786 68.3193 34.9078C68.3241 34.889 68.3265 34.8703 68.3312 34.8516C68.4478 34.3743 68.1742 33.8852 67.6888 33.7378H67.6864Z" fill="#15803D"/>
<path d="M63.9962 38.3873C63.8107 38.3569 59.3805 37.6713 53.1184 40.1048C46.8134 42.5548 43.3397 47.8806 43.1946 48.1052C43.1327 48.2012 43.0947 48.3065 43.0709 48.4118C43.4492 48.4258 43.8275 48.4352 44.2081 48.4352C44.5888 48.4352 44.9409 48.4258 45.305 48.4118C46.4256 46.9563 49.3854 43.5657 53.8179 41.8435C59.5518 39.6135 63.6441 40.2265 63.6822 40.2312C63.8559 40.2593 64.0248 40.2359 64.1794 40.1774C64.4412 40.0791 64.6482 39.8709 64.7386 39.5994C64.7528 39.555 64.7695 39.5105 64.7766 39.4614C64.8623 38.9512 64.5125 38.4692 63.9939 38.385L63.9962 38.3873Z" fill="#15803D"/>
<path d="M59.421 42.129C59.2758 42.15 55.8212 42.6578 52.3404 45.1031C51.127 45.9548 50.1372 46.9844 49.3616 47.9719C50.5393 47.7566 51.6932 47.4664 52.8138 47.1108C53.0161 46.9446 53.2278 46.7808 53.4467 46.6264C55.9663 44.8574 58.5121 44.2186 59.3805 44.0407C59.5709 44.0009 59.6803 43.9846 59.6922 43.9822C60.0753 43.9284 60.3727 43.6546 60.4702 43.3106C60.5059 43.189 60.5178 43.0579 60.4964 42.9245C60.4226 42.4121 59.942 42.0564 59.4186 42.1313L59.421 42.129Z" fill="#15803D"/>
</g>
<path d="M36.0469 63C35.7552 63 35.4792 62.9453 35.2188 62.8359C34.9635 62.7266 34.7396 62.5755 34.5469 62.3828C34.3594 62.1901 34.2083 61.9661 34.0938 61.7109C33.9844 61.4557 33.9297 61.1823 33.9297 60.8906V55.9141H32.4922V55H33.9297V53.0781L34.8906 52.9219V55H36.9219V55.9141H34.8906V60.9375C34.8906 61.099 34.9193 61.25 34.9766 61.3906C35.0391 61.526 35.1224 61.6458 35.2266 61.75C35.3307 61.8542 35.4531 61.9375 35.5938 62C35.7344 62.0573 35.8854 62.0859 36.0469 62.0859H36.9219V63H36.0469ZM44.0391 60.8047C44.0391 61.1276 43.9766 61.4323 43.8516 61.7188C43.7318 62.0052 43.5651 62.2552 43.3516 62.4688C43.138 62.6823 42.888 62.8516 42.6016 62.9766C42.3151 63.0964 42.0104 63.1562 41.6875 63.1562H41.0469C40.724 63.1562 40.4193 63.0964 40.1328 62.9766C39.8464 62.8516 39.5964 62.6823 39.3828 62.4688C39.1693 62.2552 39 62.0052 38.875 61.7188C38.7552 61.4323 38.6953 61.1276 38.6953 60.8047V57.1953C38.6953 56.8724 38.7552 56.5677 38.875 56.2812C39 55.9948 39.1693 55.7448 39.3828 55.5312C39.5964 55.3177 39.8464 55.151 40.1328 55.0312C40.4193 54.9062 40.724 54.8438 41.0469 54.8438H41.6875C42.0104 54.8438 42.3151 54.9062 42.6016 55.0312C42.888 55.151 43.138 55.3177 43.3516 55.5312C43.5651 55.7448 43.7318 55.9948 43.8516 56.2812C43.9766 56.5677 44.0391 56.8724 44.0391 57.1953V60.8047ZM43.0781 57.1406C43.0781 56.9479 43.0417 56.7682 42.9688 56.6016C42.8958 56.4297 42.7969 56.2812 42.6719 56.1562C42.5469 56.0312 42.3984 55.9323 42.2266 55.8594C42.0599 55.7865 41.8802 55.75 41.6875 55.75H41.0469C40.8542 55.75 40.6719 55.7865 40.5 55.8594C40.3333 55.9323 40.1875 56.0312 40.0625 56.1562C39.9375 56.2812 39.8385 56.4297 39.7656 56.6016C39.6927 56.7682 39.6562 56.9479 39.6562 57.1406V60.8594C39.6562 61.0521 39.6927 61.2344 39.7656 61.4062C39.8385 61.5729 39.9375 61.7188 40.0625 61.8438C40.1875 61.9688 40.3333 62.0677 40.5 62.1406C40.6719 62.2135 40.8542 62.25 41.0469 62.25H41.6875C41.8802 62.25 42.0599 62.2135 42.2266 62.1406C42.3984 62.0677 42.5469 61.9688 42.6719 61.8438C42.7969 61.7188 42.8958 61.5729 42.9688 61.4062C43.0417 61.2344 43.0781 61.0521 43.0781 60.8594V57.1406ZM48.875 63C48.5833 63 48.3073 62.9453 48.0469 62.8359C47.7917 62.7266 47.5677 62.5755 47.375 62.3828C47.1875 62.1901 47.0365 61.9661 46.9219 61.7109C46.8125 61.4557 46.7578 61.1823 46.7578 60.8906V55.9141H45.3203V55H46.7578V53.0781L47.7188 52.9219V55H49.75V55.9141H47.7188V60.9375C47.7188 61.099 47.7474 61.25 47.8047 61.3906C47.8672 61.526 47.9505 61.6458 48.0547 61.75C48.1589 61.8542 48.2812 61.9375 48.4219 62C48.5625 62.0573 48.7135 62.0859 48.875 62.0859H49.75V63H48.875ZM56.5469 63L56.0156 62.1875C55.7969 62.4844 55.5234 62.7214 55.1953 62.8984C54.8672 63.0703 54.5078 63.1562 54.1172 63.1562H53.875C53.5521 63.1562 53.2474 63.0964 52.9609 62.9766C52.6745 62.8516 52.4245 62.6823 52.2109 62.4688C51.9974 62.2552 51.8281 62.0052 51.7031 61.7188C51.5833 61.4323 51.5234 61.1276 51.5234 60.8047V57.1953C51.5234 56.8724 51.5833 56.5677 51.7031 56.2812C51.8281 55.9948 51.9974 55.7448 52.2109 55.5312C52.4245 55.3177 52.6745 55.151 52.9609 55.0312C53.2474 54.9062 53.5521 54.8438 53.875 54.8438H54.1172C54.4766 54.8438 54.8099 54.9167 55.1172 55.0625C55.4245 55.2083 55.6875 55.4115 55.9062 55.6719V51.7969H56.8672V63H56.5469ZM55.9062 57.1406C55.9062 56.9479 55.8698 56.7682 55.7969 56.6016C55.724 56.4297 55.625 56.2812 55.5 56.1562C55.375 56.0312 55.2266 55.9323 55.0547 55.8594C54.888 55.7865 54.7083 55.75 54.5156 55.75H53.875C53.6823 55.75 53.5 55.7865 53.3281 55.8594C53.1615 55.9323 53.0156 56.0312 52.8906 56.1562C52.7656 56.2812 52.6667 56.4297 52.5938 56.6016C52.5208 56.7682 52.4844 56.9479 52.4844 57.1406V60.8594C52.4844 61.0521 52.5208 61.2344 52.5938 61.4062C52.6667 61.5729 52.7656 61.7188 52.8906 61.8438C53.0156 61.9688 53.1615 62.0677 53.3281 62.1406C53.5 62.2135 53.6823 62.25 53.875 62.25H54.5156C54.7083 62.25 54.888 62.2135 55.0547 62.1406C55.2266 62.0677 55.375 61.9688 55.5 61.8438C55.625 61.7188 55.724 61.5729 55.7969 61.4062C55.8698 61.2344 55.9062 61.0521 55.9062 60.8594V57.1406Z" fill="#15803D"/>
<defs>
<clipPath id="clip0_114_3757">
<rect width="52.1053" height="48.4375" fill="white" transform="translate(18.1579)"/>
</clipPath>
</defs>
</svg>
