<svg width="90" height="99" viewBox="0 0 90 99" fill="none" xmlns="http://www.w3.org/2000/svg">
<g clip-path="url(#clip0_98_7701)">
<path d="M36.5675 35.3383C37.2919 35.0329 37.6274 34.2081 37.3169 33.4956C37.2955 33.45 35.2898 28.7817 35.2898 23.1693C35.2898 18.0693 39.3226 8.97849 43.8551 3.54155C48.3875 8.97849 52.4203 18.0693 52.4203 23.1693C52.4203 28.7326 50.4325 33.4113 50.3932 33.4991C50.0827 34.2116 50.4182 35.0365 51.1427 35.3418C51.3247 35.419 51.5174 35.4541 51.703 35.4541C52.2561 35.4541 52.7843 35.1347 53.0163 34.6012C53.1091 34.3906 55.2718 29.3503 55.2718 23.1658C55.2718 16.9812 50.3325 6.16701 44.9007 0.445765C44.6295 0.161458 44.2512 0 43.8586 0C43.4661 0 43.0842 0.161458 42.8165 0.445765C37.3847 6.16701 32.4383 16.9988 32.4383 23.1658C32.4383 29.3328 34.6046 34.3871 34.6938 34.6012C35.0043 35.3137 35.843 35.6437 36.5675 35.3383Z" fill="#15803D"/>
<path d="M25.2078 47.4301C25.4826 47.6899 25.8395 47.8162 26.1928 47.8162C26.5711 47.8162 26.9458 47.6688 27.2278 47.381C27.7702 46.8194 27.7488 45.9314 27.1814 45.3944C18.1843 36.9599 6.30358 39.9258 5.80037 40.0592C5.0402 40.2558 4.58696 41.0244 4.78681 41.7721C4.98667 42.5197 5.76825 42.969 6.52842 42.7724C6.63548 42.7443 17.392 40.0943 25.2114 47.4266L25.2078 47.4301Z" fill="#15803D"/>
<path d="M81.8312 40.0592C81.328 39.9293 69.4473 36.9599 60.4502 45.3943C59.8792 45.9278 59.8578 46.8194 60.4038 47.381C60.6858 47.6688 61.0605 47.8162 61.4388 47.8162C61.7921 47.8162 62.149 47.6863 62.4238 47.4301C70.2432 40.0978 80.9961 42.7478 81.1068 42.7759C81.8705 42.9725 82.6485 42.5267 82.8484 41.7756C83.0518 41.0244 82.595 40.2557 81.8348 40.0592H81.8312Z" fill="#15803D"/>
<path d="M79.0297 50.6067C78.6299 50.4873 69.0654 47.7145 54.815 54.1833C50.3646 56.2016 46.7387 58.5638 43.8443 60.8628C46.8101 54.1868 52.2418 43.6815 58.7479 39.0448C68.7157 31.9477 80.2181 29.4767 80.3359 29.4521C81.1067 29.2907 81.5992 28.5465 81.4351 27.7884C81.2709 27.0302 80.5143 26.5459 79.7434 26.7073C79.2509 26.8091 67.5487 29.3117 57.0741 36.7704C53.0948 39.6029 49.1369 44.566 45.2826 51.5333V20.4385C45.2826 19.6628 44.6438 19.0345 43.855 19.0345C43.0663 19.0345 42.4275 19.6628 42.4275 20.4385V50.21C40.8822 47.5706 38.516 44.2747 34.9008 40.5155C25.661 30.9052 9.33709 26.8828 8.64473 26.7179C7.87742 26.5318 7.10655 26.9951 6.9174 27.7463C6.72825 28.5009 7.19934 29.2591 7.96308 29.4451C8.12368 29.4837 24.155 33.4324 32.8273 42.446C40.4396 50.3575 42.1099 55.998 42.3918 57.1843C42.1099 57.7775 41.8458 58.3532 41.5924 58.9042C39.9578 57.6126 36.9707 55.8962 31.7495 53.4883C19.9901 48.069 10.472 50.4908 10.0723 50.5961C9.3121 50.7962 8.86243 51.5649 9.06585 52.3125C9.26928 53.0601 10.0509 53.5059 10.811 53.3058C10.9002 53.2848 19.7724 51.0665 30.5361 56.0296C37.7737 59.364 39.8508 61.0453 40.4075 61.6069C39.7259 63.2215 39.2369 64.4816 38.9657 65.2046C29.9508 56.5069 15.3256 56.8439 14.6832 56.8649C13.8945 56.8895 13.2771 57.5353 13.3021 58.311C13.3271 59.0867 13.9873 59.6975 14.7724 59.6729C14.9188 59.6694 28.9979 59.3605 37.1313 67.3703C36.3997 68.2442 35.8323 69.0024 35.4147 69.5886C27.8309 64.2604 20.9466 63.2425 20.6396 63.1969C19.8616 63.0881 19.1372 63.6216 19.0265 64.3868C19.0122 64.4851 19.0087 64.5798 19.0158 64.6746C19.0551 65.3239 19.5547 65.8785 20.2364 65.9768C20.2506 65.9768 20.6075 66.033 21.2356 66.1734C23.1914 66.6191 27.7774 67.9248 32.788 71.2137C34.2084 71.5927 35.6574 71.9016 37.1313 72.1333C37.4704 71.5998 38.6481 69.8378 40.7858 67.5493C41.0214 67.4159 41.2177 67.2158 41.3461 66.9596C44.4189 63.7971 49.2119 59.8203 56.0141 56.7316C69.1975 50.7471 78.1089 53.2637 78.1945 53.2883C78.687 53.4392 79.1938 53.3093 79.5543 52.997C79.747 52.832 79.8969 52.6179 79.979 52.3617C79.9861 52.3336 79.9897 52.3055 79.9968 52.2774C80.1717 51.5614 79.7613 50.8278 79.0332 50.6067H79.0297Z" fill="#15803D"/>
<path d="M73.4944 57.581C73.216 57.5353 66.5708 56.5069 57.1776 60.1573C47.7201 63.8322 42.5096 71.8209 42.2919 72.1578C42.1991 72.3017 42.142 72.4597 42.1063 72.6176C42.6738 72.6387 43.2412 72.6527 43.8122 72.6527C44.3833 72.6527 44.9114 72.6387 45.4575 72.6176C47.1384 70.4344 51.5781 65.3485 58.2268 62.7652C66.8278 59.4202 72.9662 60.3398 73.0233 60.3468C73.2838 60.3889 73.5372 60.3538 73.7692 60.2661C74.1618 60.1187 74.4723 59.8063 74.6079 59.3991C74.6293 59.3324 74.6543 59.2657 74.665 59.192C74.7935 58.4269 74.2688 57.7038 73.4908 57.5774L73.4944 57.581Z" fill="#15803D"/>
<path d="M66.6315 63.1934C66.4138 63.225 61.2318 63.9866 56.0106 67.6545C54.1904 68.9322 52.7058 70.4765 51.5424 71.9577C53.3089 71.6348 55.0398 71.1996 56.7208 70.6661C57.0241 70.4169 57.3418 70.1712 57.6701 69.9395C61.4495 67.286 65.2682 66.3278 66.5708 66.061C66.8563 66.0013 67.0205 65.9768 67.0383 65.9733C67.6129 65.8925 68.059 65.4819 68.2053 64.9659C68.2589 64.7834 68.2767 64.5868 68.2446 64.3868C68.134 63.6181 67.4131 63.0846 66.6279 63.1969L66.6315 63.1934Z" fill="#15803D"/>
</g>
<path d="M31.5703 95C31.1328 95 30.7188 94.918 30.3281 94.7539C29.9453 94.5898 29.6094 94.3633 29.3203 94.0742C29.0391 93.7852 28.8125 93.4492 28.6406 93.0664C28.4766 92.6836 28.3945 92.2734 28.3945 91.8359V84.3711H26.2383V83H28.3945V80.1172L29.8359 79.8828V83H32.8828V84.3711H29.8359V91.9062C29.8359 92.1484 29.8789 92.375 29.9648 92.5859C30.0586 92.7891 30.1836 92.9688 30.3398 93.125C30.4961 93.2812 30.6797 93.4062 30.8906 93.5C31.1016 93.5859 31.3281 93.6289 31.5703 93.6289H32.8828V95H31.5703ZM43.5586 91.707C43.5586 92.1914 43.4648 92.6484 43.2773 93.0781C43.0977 93.5078 42.8477 93.8828 42.5273 94.2031C42.207 94.5234 41.832 94.7773 41.4023 94.9648C40.9727 95.1445 40.5156 95.2344 40.0312 95.2344H39.0703C38.5859 95.2344 38.1289 95.1445 37.6992 94.9648C37.2695 94.7773 36.8945 94.5234 36.5742 94.2031C36.2539 93.8828 36 93.5078 35.8125 93.0781C35.6328 92.6484 35.543 92.1914 35.543 91.707V86.293C35.543 85.8086 35.6328 85.3516 35.8125 84.9219C36 84.4922 36.2539 84.1172 36.5742 83.7969C36.8945 83.4766 37.2695 83.2266 37.6992 83.0469C38.1289 82.8594 38.5859 82.7656 39.0703 82.7656H40.0312C40.5156 82.7656 40.9727 82.8594 41.4023 83.0469C41.832 83.2266 42.207 83.4766 42.5273 83.7969C42.8477 84.1172 43.0977 84.4922 43.2773 84.9219C43.4648 85.3516 43.5586 85.8086 43.5586 86.293V91.707ZM42.1172 86.2109C42.1172 85.9219 42.0625 85.6523 41.9531 85.4023C41.8438 85.1445 41.6953 84.9219 41.5078 84.7344C41.3203 84.5469 41.0977 84.3984 40.8398 84.2891C40.5898 84.1797 40.3203 84.125 40.0312 84.125H39.0703C38.7812 84.125 38.5078 84.1797 38.25 84.2891C38 84.3984 37.7812 84.5469 37.5938 84.7344C37.4062 84.9219 37.2578 85.1445 37.1484 85.4023C37.0391 85.6523 36.9844 85.9219 36.9844 86.2109V91.7891C36.9844 92.0781 37.0391 92.3516 37.1484 92.6094C37.2578 92.8594 37.4062 93.0781 37.5938 93.2656C37.7812 93.4531 38 93.6016 38.25 93.7109C38.5078 93.8203 38.7812 93.875 39.0703 93.875H40.0312C40.3203 93.875 40.5898 93.8203 40.8398 93.7109C41.0977 93.6016 41.3203 93.4531 41.5078 93.2656C41.6953 93.0781 41.8438 92.8594 41.9531 92.6094C42.0625 92.3516 42.1172 92.0781 42.1172 91.7891V86.2109ZM50.8125 95C50.375 95 49.9609 94.918 49.5703 94.7539C49.1875 94.5898 48.8516 94.3633 48.5625 94.0742C48.2812 93.7852 48.0547 93.4492 47.8828 93.0664C47.7188 92.6836 47.6367 92.2734 47.6367 91.8359V84.3711H45.4805V83H47.6367V80.1172L49.0781 79.8828V83H52.125V84.3711H49.0781V91.9062C49.0781 92.1484 49.1211 92.375 49.207 92.5859C49.3008 92.7891 49.4258 92.9688 49.582 93.125C49.7383 93.2812 49.9219 93.4062 50.1328 93.5C50.3438 93.5859 50.5703 93.6289 50.8125 93.6289H52.125V95H50.8125ZM62.3203 95L61.5234 93.7812C61.1953 94.2266 60.7852 94.582 60.293 94.8477C59.8008 95.1055 59.2617 95.2344 58.6758 95.2344H58.3125C57.8281 95.2344 57.3711 95.1445 56.9414 94.9648C56.5117 94.7773 56.1367 94.5234 55.8164 94.2031C55.4961 93.8828 55.2422 93.5078 55.0547 93.0781C54.875 92.6484 54.7852 92.1914 54.7852 91.707V86.293C54.7852 85.8086 54.875 85.3516 55.0547 84.9219C55.2422 84.4922 55.4961 84.1172 55.8164 83.7969C56.1367 83.4766 56.5117 83.2266 56.9414 83.0469C57.3711 82.8594 57.8281 82.7656 58.3125 82.7656H58.6758C59.2148 82.7656 59.7148 82.875 60.1758 83.0938C60.6367 83.3125 61.0312 83.6172 61.3594 84.0078V78.1953H62.8008V95H62.3203ZM61.3594 86.2109C61.3594 85.9219 61.3047 85.6523 61.1953 85.4023C61.0859 85.1445 60.9375 84.9219 60.75 84.7344C60.5625 84.5469 60.3398 84.3984 60.082 84.2891C59.832 84.1797 59.5625 84.125 59.2734 84.125H58.3125C58.0234 84.125 57.75 84.1797 57.4922 84.2891C57.2422 84.3984 57.0234 84.5469 56.8359 84.7344C56.6484 84.9219 56.5 85.1445 56.3906 85.4023C56.2812 85.6523 56.2266 85.9219 56.2266 86.2109V91.7891C56.2266 92.0781 56.2812 92.3516 56.3906 92.6094C56.5 92.8594 56.6484 93.0781 56.8359 93.2656C57.0234 93.4531 57.2422 93.6016 57.4922 93.7109C57.75 93.8203 58.0234 93.875 58.3125 93.875H59.2734C59.5625 93.875 59.832 93.8203 60.082 93.7109C60.3398 93.6016 60.5625 93.4531 60.75 93.2656C60.9375 93.0781 61.0859 92.8594 61.1953 92.6094C61.3047 92.3516 61.3594 92.0781 61.3594 91.7891V86.2109Z" fill="#15803D"/>
<defs>
<clipPath id="clip0_98_7701">
<rect width="78.1579" height="72.6562" fill="white" transform="translate(4.73685)"/>
</clipPath>
</defs>
</svg>
