<?xml version="1.0" encoding="UTF-8"?>
<svg id="Outline" xmlns="http://www.w3.org/2000/svg" viewBox="0 0 512 512">
  <defs>
    <style>
      .cls-1 {
        fill: #fff;
      }
    </style>
  </defs>
  <rect width="512" height="512" rx="38.05" ry="38.05"/>
  <g>
    <path class="cls-1" d="M179.87,73.28h-45.68c-33.64,0-60.91,27.27-60.91,60.91v45.68c0,33.64,27.27,60.91,60.91,60.91h45.68c33.64,0,60.91-27.27,60.91-60.91v-45.68c0-33.64-27.27-60.91-60.91-60.91ZM210.32,179.87c0,16.82-13.63,30.45-30.45,30.45h-45.68c-16.82,0-30.45-13.63-30.45-30.45v-45.68c0-16.82,13.63-30.45,30.45-30.45h45.68c16.82,0,30.45,13.63,30.45,30.45v45.68Z"/>
    <path class="cls-1" d="M377.81,73.28h-45.68c-33.64,0-60.91,27.27-60.91,60.91v45.68c0,33.64,27.27,60.91,60.91,60.91h45.68c33.64,0,60.91-27.27,60.91-60.91v-45.68c0-33.64-27.27-60.91-60.91-60.91ZM408.27,179.87c0,16.82-13.63,30.45-30.45,30.45h-45.68c-16.82,0-30.45-13.63-30.45-30.45v-45.68c0-16.82,13.63-30.45,30.45-30.45h45.68c16.82,0,30.45,13.63,30.45,30.45v45.68Z"/>
    <path class="cls-1" d="M179.87,271.23h-45.68c-33.64,0-60.91,27.27-60.91,60.91v45.68c0,33.64,27.27,60.91,60.91,60.91h45.68c33.64,0,60.91-27.27,60.91-60.91v-45.68c0-33.64-27.27-60.91-60.91-60.91ZM210.32,377.81c0,16.82-13.63,30.45-30.45,30.45h-45.68c-16.82,0-30.45-13.63-30.45-30.45v-45.68c0-16.82,13.63-30.45,30.45-30.45h45.68c16.82,0,30.45,13.63,30.45,30.45v45.68Z"/>
    <path class="cls-1" d="M377.81,271.23h-45.68c-33.64,0-60.91,27.27-60.91,60.91v45.68c0,33.64,27.27,60.91,60.91,60.91h45.68c33.64,0,60.91-27.27,60.91-60.91v-45.68c0-33.64-27.27-60.91-60.91-60.91ZM408.27,377.81c0,16.82-13.63,30.45-30.45,30.45h-45.68c-16.82,0-30.45-13.63-30.45-30.45v-45.68c0-16.82,13.63-30.45,30.45-30.45h45.68c16.82,0,30.45,13.63,30.45,30.45v45.68Z"/>
  </g>
</svg>